<svg xmlns="http://www.w3.org/2000/svg" xmlns:xlink="http://www.w3.org/1999/xlink" width="120.502" height="57.046" viewBox="0 0 120.502 57.046">
  <defs>
    <clipPath id="clip-path">
      <path id="パス_467" data-name="パス 467" d="M0-27.658H120.5V-84.7H0Z" transform="translate(0 84.704)" fill="none"/>
    </clipPath>
  </defs>
  <g id="グループ_3385" data-name="グループ 3385" transform="translate(0 84.704)">
    <g id="グループ_558" data-name="グループ 558" transform="translate(0 -84.704)" clip-path="url(#clip-path)">
      <g id="グループ_557" data-name="グループ 557" transform="translate(49.929 9.819)">
      </g>
    </g>
    <g id="グループ_559" data-name="グループ 559" transform="translate(46.29 -67.91)">
      <path id="パス_468" data-name="パス 468" d="M-.987,0-3.024,3.6H17.755L20.067,0Z" transform="translate(3.024)"/>
    </g>
    <g id="グループ_560" data-name="グループ 560" transform="translate(92.472 -37.446)">
      <path id="パス_469" data-name="パス 469" d="M-.013,0-.039.357.157,0Z" transform="translate(0.039)" fill="#2b2e34"/>
    </g>
    <g id="グループ_565" data-name="グループ 565" transform="translate(0 -84.704)" clip-path="url(#clip-path)">
      <g id="グループ_561" data-name="グループ 561" transform="translate(65.257 16.794)">
        <path id="パス_470" data-name="パス 470" d="M-6.386-15.015c.131.066,15.085-28.5,16.225-30.969h-22.21l-4.742,7.459H-3.606l-.708,1.387c-.952,1.866-2.01,3.787-3.132,5.821C-9.27-28-11.157-24.58-12.742-21.091L-19.558-6.959H3.131l4.427-8.056Z" transform="translate(19.558 45.984)"/>
      </g>
      <g id="グループ_562" data-name="グループ 562" transform="translate(0 0)">
        <path id="パス_471" data-name="パス 471" d="M-20.8-19.3c-3.228,6.27-5.767,9.078-8.183,9.078-1.986,0-3.268-1.956-3.268-4.984,0-7.8,5.749-27.243,12.931-43.9H-32.3c-.854,2.984-3.91,15.2-6.417,27.225l-.439,2.1L-40.426-31.5c-1.381-1.892-3.8-2.893-6.989-2.893-9.6,0-16.285,10.706-16.285,20.314,0,5.55,2.682,12.031,10.239,12.031,4.267,0,7.965-2.2,10.694-6.36l1.2-1.835.522,2.131c.556,2.265,2.21,6.064,7.058,6.064,7.465,0,13.074-11.216,15.47-16.006.012-.026.026-.051.038-.076Zm-21.1,1.392c-1.649,5.753-5.531,9.689-8.67,8.789s-4.345-6.294-2.7-12.048,5.532-9.688,8.67-8.789,4.346,6.295,2.7,12.048" transform="translate(63.7 59.098)"/>
      </g>
      <g id="グループ_563" data-name="グループ 563" transform="translate(36.77 24.513)">
        <path id="パス_472" data-name="パス 472" d="M-9.688,0a24.152,24.152,0,0,0-4.7.417C-24.33,1.96-29.671,11.262-29.671,19.234c0,8.2,4.953,13.3,12.926,13.3,7.347,0,13.8-4.678,16.838-12.206l.54-1.338,0,0a21.505,21.505,0,0,0,1.524-7.582C2.161,4.053-2.047,0-9.688,0m3.146,17.279c-1.649,5.753-5.531,9.689-8.67,8.789s-4.345-6.294-2.7-12.048,5.532-9.689,8.67-8.789,4.346,6.295,2.7,12.048" transform="translate(29.671)"/>
      </g>
      <g id="グループ_564" data-name="グループ 564" transform="translate(88.587 24.513)">
        <path id="パス_473" data-name="パス 473" d="M-9.688,0a24.162,24.162,0,0,0-4.7.417c-9.94,1.544-15.282,10.845-15.282,18.817,0,8.2,4.953,13.3,12.926,13.3,7.347,0,13.8-4.678,16.839-12.206L.7,18.82a21.377,21.377,0,0,0,1.459-7.409C2.162,4.053-2.047,0-9.688,0m3.247,17.279c-1.65,5.753-5.532,9.689-8.67,8.789s-4.345-6.294-2.7-12.048,5.532-9.689,8.67-8.789,4.346,6.295,2.7,12.048" transform="translate(29.671)"/>
      </g>
    </g>
  </g>
</svg>
