<svg xmlns="http://www.w3.org/2000/svg" xmlns:xlink="http://www.w3.org/1999/xlink" width="206.406" height="97.713" viewBox="0 0 206.406 97.713">
  <defs>
    <clipPath id="clip-path">
      <path id="パス_467" data-name="パス 467" d="M0,13.009H206.407V-84.7H0Z" transform="translate(0 84.704)" fill="#fff"/>
    </clipPath>
  </defs>
  <g id="グループ_568" data-name="グループ 568" transform="translate(0 84.704)">
    <g id="グループ_558" data-name="グループ 558" transform="translate(0 -84.704)" clip-path="url(#clip-path)">
      <g id="グループ_557" data-name="グループ 557" transform="translate(85.523 16.819)">
      </g>
    </g>
    <g id="グループ_559" data-name="グループ 559" transform="translate(79.289 -55.938)">
      <path id="パス_468" data-name="パス 468" d="M.464,0-3.024,6.166H32.567L36.529,0Z" transform="translate(3.024)" fill="#fff"/>
    </g>
    <g id="グループ_560" data-name="グループ 560" transform="translate(158.394 -3.756)">
      <path id="パス_469" data-name="パス 469" d="M.006,0-.039.611.3,0Z" transform="translate(0.039)" fill="#fff"/>
    </g>
    <g id="グループ_565" data-name="グループ 565" transform="translate(0 -84.704)" clip-path="url(#clip-path)">
      <g id="グループ_561" data-name="グループ 561" transform="translate(111.777 28.766)">
        <path id="パス_470" data-name="パス 470" d="M3,7.062c.225.113,25.839-48.815,27.792-53.046H-7.248l-8.122,12.776H7.766L6.553-30.832c-1.63,3.2-3.443,6.487-5.364,9.972C-1.936-15.187-5.168-9.321-7.884-3.345L-19.558,20.861H19.306l7.582-13.8Z" transform="translate(19.558 45.984)" fill="#fff"/>
      </g>
      <g id="グループ_562" data-name="グループ 562" transform="translate(0 0)">
        <path id="パス_471" data-name="パス 471" d="M9.783,9.076C4.254,19.816-.1,24.626-4.234,24.626c-3.4,0-5.6-3.35-5.6-8.536C-9.832,2.736.015-30.575,12.316-59.1H-9.921c-1.463,5.112-6.7,26.042-10.991,46.633l-.752,3.6-2.17-2.97c-2.366-3.242-6.506-4.955-11.972-4.955-16.439,0-27.894,18.338-27.894,34.8,0,9.507,4.594,20.608,17.539,20.608,7.309,0,13.643-3.766,18.318-10.894l2.061-3.142.894,3.65c.952,3.879,3.786,10.387,12.09,10.387C-.012,38.615,9.6,19.4,13.7,11.2c.021-.044.044-.088.065-.13Zm-36.146,2.384c-2.825,9.855-9.474,16.6-14.851,15.054s-7.442-10.78-4.617-20.638,9.476-16.594,14.85-15.054,7.444,10.783,4.618,20.638" transform="translate(63.7 59.098)" fill="#fff"/>
      </g>
      <g id="グループ_563" data-name="グループ 563" transform="translate(62.983 41.987)">
        <path id="パス_472" data-name="パス 472" d="M4.557,0A41.37,41.37,0,0,0-3.5.714C-20.522,3.357-29.671,19.29-29.671,32.945c0,14.051,8.485,22.781,22.141,22.781,12.584,0,23.636-8.013,28.842-20.907l.925-2.292.007.007a36.836,36.836,0,0,0,2.611-12.987C24.854,6.942,17.645,0,4.557,0m5.39,29.6C7.121,39.452.472,46.193-4.9,44.652S-12.347,33.87-9.521,24.014-.046,7.419,5.329,8.96,12.773,19.742,9.946,29.6" transform="translate(29.671)" fill="#fff"/>
      </g>
      <g id="グループ_564" data-name="グループ 564" transform="translate(151.74 41.987)">
        <path id="パス_473" data-name="パス 473" d="M4.557,0A41.386,41.386,0,0,0-3.5.714C-20.521,3.358-29.671,19.29-29.671,32.945c0,14.051,8.485,22.781,22.141,22.781,12.584,0,23.636-8.013,28.843-20.907l1.043-2.582a36.617,36.617,0,0,0,2.5-12.691C24.855,6.942,17.647,0,4.557,0m5.561,29.6C7.292,39.452.643,46.193-4.733,44.652S-12.176,33.87-9.35,24.014.126,7.419,5.5,8.96,12.945,19.742,10.118,29.6" transform="translate(29.671)" fill="#fff"/>
      </g>
    </g>
  </g>
</svg>
