<svg xmlns="http://www.w3.org/2000/svg" width="27" height="27" viewBox="0 0 27 27"><g id="icon-sort-popular" transform="translate(-18 -2)"><g><circle cx="13.5" cy="13.5" r="13.5" transform="translate(18 2)" fill="#fff"/><path id="_1009_sy_h" data-name="1009_sy_h" d="M17.235,11.676l.97,2.174a.97.97,0,0,0,.783.565l2.374.248a.961.961,0,0,1,.544,1.674l-1.774,1.6a.97.97,0,0,0-.287.926l.5,2.34a.961.961,0,0,1-1.426,1.031l-2.066-1.2a.979.979,0,0,0-.965,0l-2.066,1.2A.961.961,0,0,1,12.394,21.2l.491-2.34a.97.97,0,0,0-.3-.918l-1.774-1.6a.961.961,0,0,1,.544-1.674l2.4-.248a.97.97,0,0,0,.783-.565l.97-2.174a.961.961,0,0,1,1.727-.009Z" transform="translate(15.142 -1.252)" stroke="#000" stroke-linecap="round" stroke-linejoin="round" stroke-width="1"/></g></g></svg>