<svg xmlns="http://www.w3.org/2000/svg" width="111.993" height="20.748" viewBox="0 0 111.993 20.748">
  <path id="パス_1645" data-name="パス 1645" d="M16.821-12.39c0-1.764-2.331-5.376-7.35-5.376-5.082,0-8.358,3.57-8.358,9.072,0,5.25,3.024,9.135,8.421,9.135,5.208,0,7.329-3.612,7.329-5.775a1.935,1.935,0,0,0-2.2-1.953c-1.722,0-1.932.756-2.226,1.764-.168.609-.525,1.869-2.982,1.869-2.751,0-3.654-2.268-3.654-5,0-3.717,1.449-5.04,3.78-5.04,2.289,0,2.73,1.3,2.919,1.848.252.735.483,1.407,2.016,1.407C14.763-10.437,16.821-10.437,16.821-12.39ZM26.4-4.2a1.977,1.977,0,0,1,2.268,2.079c0,.42-.063,1.344-1.6,2.121.168.168.483.441,1.617.441,1.533,0,2.247-.63,2.247-1.491,0-.378-.189-1.323-.189-1.47V-8.988c0-2.079-1.218-4.389-5.586-4.389-4.977,0-5.985,3-5.985,4.074a1.481,1.481,0,0,0,1.281,1.575A9.039,9.039,0,0,1,23.2-8.547a1.723,1.723,0,0,1,1.911-1.281c1.155,0,1.239.651,1.239.819,0,.525-.63.609-2.373.84-2.289.315-5.145.924-5.145,4.284,0,2.037,1.071,4.326,4.578,4.326,2.037,0,4.746-.945,4.746-2.52A1.554,1.554,0,0,0,26.67-3.738a1.67,1.67,0,0,0-.861.252,2.8,2.8,0,0,1-1.554.588.855.855,0,0,1-.966-.945c0-.8.672-.987,1.239-1.134A6.386,6.386,0,0,0,26.4-5.565Zm8.8-9.2a2.027,2.027,0,0,1,1.827,2.184,2.083,2.083,0,0,1-1.827,2.2v5.46c0,2.478.735,3.99,4.221,3.99.84,0,2.9-.042,2.9-1.974a1.547,1.547,0,0,0-1.722-1.638c-.735-.021-1.008-.021-1.008-.8v-5.5h.861a1.587,1.587,0,0,0,1.806-1.743,1.593,1.593,0,0,0-1.806-1.722h-.861v-1.848c0-1.785-1.134-2.058-2.268-2.058-2,0-2.121,1.386-2.121,2.058Zm-.5.462a1.6,1.6,0,0,0-1.806,1.743,1.607,1.607,0,0,0,1.806,1.722,1.6,1.6,0,0,0,1.827-1.743A1.607,1.607,0,0,0,34.692-12.936ZM51.954-5.019a2.714,2.714,0,0,1,2.121-.861,2.985,2.985,0,0,1,1.512.4,1.972,1.972,0,0,0,.882-1.827,6.182,6.182,0,0,0-6.384-6.069c-4.515,0-6.4,3.444-6.4,6.888,0,3.15,1.554,6.93,6.783,6.93,3.78,0,5.817-2.457,5.817-4.011,0-1.218-1.239-1.806-2.226-1.806a2.037,2.037,0,0,0-1.806.945,1.774,1.774,0,0,1-1.953,1.218c-1.806,0-1.995-1.071-2.121-1.806ZM48.216-8.337a1.8,1.8,0,0,1,1.911-1.575,1.661,1.661,0,0,1,1.806,1.386c0,.168-.1.189-.336.189ZM62.727-6.069a11.461,11.461,0,0,0,2.247.189c2.436,0,5.628-.819,5.481-3.7.882,0,1.659-.1,1.659-1.89,0-1.008-.357-1.911-1.533-1.911a3.744,3.744,0,0,0-2.037.672,8.223,8.223,0,0,0-3.822-.672c-4.956,0-5.8,2.457-5.8,3.822a2.765,2.765,0,0,0,1.008,2.247,2.605,2.605,0,0,0-1.26,2.2,1.943,1.943,0,0,0,.294,1.134,2.909,2.909,0,0,1,1.6-.42,2.46,2.46,0,0,1,2.73,2.352,31.166,31.166,0,0,1,3.486.231c.315.063.714.189.714.567,0,.882-1.848.882-2.226.882s-2.73,0-2.73-1.029c0-.105.189-.651.189-.777,0-.945-.861-1.722-2.184-1.722-2.5,0-2.5,2.751-2.5,2.919,0,3.339,4.032,3.948,6.636,3.948,2.1,0,7.287-.252,7.287-4.368,0-3.4-3.759-3.633-5.4-3.717-3.591-.21-3.99-.231-3.99-.651A.63.63,0,0,1,62.727-6.069Zm2.016-4.347c.567,0,1.407.21,1.407.966,0,.714-.861.861-1.407.861-.609,0-1.407-.168-1.407-.882S64.155-10.416,64.743-10.416ZM82.362-7.644a6.737,6.737,0,0,1,.147,1.281c0,1.218-.567,3-2.247,3s-2.226-1.806-2.226-3.108.546-3.108,2.226-3.108a2.2,2.2,0,0,1,1.806,1.05,1.966,1.966,0,0,0,1.659.8A2.141,2.141,0,0,0,86.058-9.66c0-1.05-1.68-3.717-5.8-3.717-4.62,0-6.762,3.444-6.762,6.909S75.642.441,80.262.441c4.536,0,6.783-3.3,6.783-6.972a6.46,6.46,0,0,0-.525-2.814,2.665,2.665,0,0,1-2.73,2.121A2.148,2.148,0,0,1,82.362-7.644ZM93.87-7.35a2.681,2.681,0,0,1-2.814-2.793c0-1.2.987-2.079,2.394-2.751-.42-.483-1.6-.483-1.785-.483-1.575,0-2.184.756-2.184,2.058v9.7c0,1.785,1.134,2.058,2.268,2.058C93.723.441,93.87-.9,93.87-1.617ZM96.894-13.4a7.886,7.886,0,0,0-3.528,1.113c-1.239.714-1.785,1.26-1.785,2.163a2.22,2.22,0,0,0,1.974,2.289,1.56,1.56,0,0,0,.945-.294,5.245,5.245,0,0,1,2.268-.987c1.47-.252,2.226-.378,2.226-1.974A2.045,2.045,0,0,0,96.894-13.4ZM107.94-6.027a3.707,3.707,0,0,1,.273,1.323,2.843,2.843,0,0,1-2.835,2.373,2,2,0,0,1-.609-.084L104.6-2c-.4.987-.756,1.092-1.26,1.155-.882.084-1.827.189-1.827,1.764a2.03,2.03,0,0,0,2.373,2.058c2.877,0,3.633-1.659,4.347-3.234L112.9-10.416a3.133,3.133,0,0,0,.21-1.071c0-.987-1.2-1.89-2.394-1.89a1.946,1.946,0,0,0-1.911,1.386l-1.764,4.158Zm-3.675-6.279a1.932,1.932,0,0,0-1.6-1.071c-1.134,0-2.541.861-2.541,2.058a2.475,2.475,0,0,0,.21.987l3.4,6.426a1.871,1.871,0,0,0,1.617,1.071,2.3,2.3,0,0,0,2.352-1.995,2.328,2.328,0,0,0-.231-.987Z" transform="translate(-1.113 17.766)" fill="#191615"/>
</svg>